<?xml version="1.0" encoding="utf-8"?>
<!-- Generator: Adobe Illustrator 24.0.3, SVG Export Plug-In . SVG Version: 6.00 Build 0)  -->
<svg version="1.1" id="Calque_1" xmlns="http://www.w3.org/2000/svg" xmlns:xlink="http://www.w3.org/1999/xlink" x="0px" y="0px"
	 viewBox="0 0 160 160" style="enable-background:new 0 0 160 160;" xml:space="preserve">
<style type="text/css">
	.st0{fill:#FFFFFF;}
	.st1{fill:#7566AB;}
</style>
<g>
	<g>
		<path class="st0" d="M3.05,39.72v-0.18c0-18.39,14.15-32.81,33.26-32.81c12.89,0,21.18,5.41,26.77,13.16L49.92,30.08
			c-3.6-4.51-7.75-7.39-13.79-7.39c-8.83,0-15.05,7.48-15.05,16.67v0.18c0,9.46,6.22,16.86,15.05,16.86
			c6.58,0,10.46-3.06,14.24-7.66l13.16,9.37c-5.95,8.2-13.97,14.24-27.94,14.24C17.56,72.35,3.05,58.56,3.05,39.72z"/>
		<path class="st0" d="M82.72,39.72v-0.18c0-18.12,14.6-32.81,34.07-32.81s33.89,14.51,33.89,32.63v0.18
			c0,18.12-14.6,32.81-34.07,32.81S82.72,57.84,82.72,39.72z M132.83,39.72v-0.18c0-9.1-6.58-17.04-16.22-17.04
			c-9.55,0-15.95,7.75-15.95,16.86v0.18c0,9.1,6.58,17.04,16.13,17.04C126.43,56.58,132.83,48.83,132.83,39.72z"/>
		<path class="st0" d="M3.05,120.64v-0.18c0-18.12,14.6-32.81,34.07-32.81s33.89,14.51,33.89,32.63v0.18
			c0,18.12-14.6,32.81-34.07,32.81S3.05,138.75,3.05,120.64z M53.16,120.64v-0.18c0-9.1-6.58-17.04-16.22-17.04
			c-9.55,0-15.95,7.75-15.95,16.86v0.18c0,9.1,6.58,17.04,16.13,17.04C46.76,137.49,53.16,129.74,53.16,120.64z"/>
	</g>
	<g>
		<g>
			<polygon class="st1" points="99.22,150.59 109.47,150.59 92.62,119.97 109.47,90.25 99.22,90.25 82.49,120.03 			"/>
		</g>
		<g>
			<polygon class="st1" points="140.22,151.24 129.97,151.24 146.82,120.62 129.97,90.9 140.22,90.9 156.95,120.68 			"/>
		</g>
		<g>
			<polygon class="st1" points="133.9,102.76 108.88,144.91 104.93,137.66 129.95,95.52 			"/>
		</g>
	</g>
</g>
</svg>
