<?xml version="1.0" encoding="utf-8"?>
<!-- Generator: Adobe Illustrator 24.0.3, SVG Export Plug-In . SVG Version: 6.00 Build 0)  -->
<svg version="1.1" id="Calque_1" xmlns="http://www.w3.org/2000/svg" xmlns:xlink="http://www.w3.org/1999/xlink" x="0px" y="0px"
	 viewBox="0 0 230 230" style="enable-background:new 0 0 230 230;" xml:space="preserve">
<style type="text/css">
	.st0{fill:#FFFFFF;}
	.st1{fill:#262A36;}
</style>
<g>
	<g>
		<path class="st0" d="M5.27,57.79v-0.26c0-26.32,20.25-46.96,47.6-46.96c18.45,0,30.31,7.74,38.31,18.83L72.35,43.98
			c-5.16-6.45-11.09-10.58-19.74-10.58c-12.64,0-21.54,10.71-21.54,23.86v0.26c0,13.54,8.9,24.12,21.54,24.12
			c9.42,0,14.96-4.39,20.38-10.96L91.82,84.1c-8.51,11.74-19.99,20.38-39.99,20.38C26.04,104.48,5.27,84.75,5.27,57.79z"/>
		<path class="st0" d="M119.29,57.79v-0.26c0-25.93,20.9-46.96,48.76-46.96s48.5,20.77,48.5,46.7v0.26
			c0,25.93-20.9,46.96-48.76,46.96S119.29,83.72,119.29,57.79z M191.01,57.79v-0.26c0-13.03-9.42-24.38-23.22-24.38
			c-13.67,0-22.83,11.09-22.83,24.12v0.26c0,13.03,9.42,24.38,23.09,24.38C181.85,81.91,191.01,70.82,191.01,57.79z"/>
		<path class="st0" d="M5.27,173.59v-0.26c0-25.93,20.9-46.96,48.76-46.96s48.5,20.77,48.5,46.7v0.26
			c0,25.93-20.9,46.96-48.76,46.96S5.27,199.51,5.27,173.59z M76.99,173.59v-0.26c0-13.03-9.42-24.38-23.22-24.38
			c-13.67,0-22.83,11.09-22.83,24.12v0.26c0,13.03,9.42,24.38,23.09,24.38C67.83,197.71,76.99,186.62,76.99,173.59z"/>
	</g>
	<g>
		<g>
			<polygon class="st1" points="142.91,216.46 157.58,216.46 133.47,172.64 157.58,130.1 142.91,130.1 118.96,172.72 			"/>
		</g>
		<g>
			<polygon class="st1" points="201.58,217.39 186.92,217.39 211.03,173.57 186.92,131.03 201.58,131.03 225.53,173.65 			"/>
		</g>
		<g>
			<polygon class="st1" points="192.54,148.01 156.73,208.32 151.08,197.96 186.89,137.64 			"/>
		</g>
	</g>
</g>
</svg>
