<?xml version="1.0" encoding="utf-8"?>
<!-- Generator: Adobe Illustrator 24.0.3, SVG Export Plug-In . SVG Version: 6.00 Build 0)  -->
<svg version="1.1" id="Calque_1" xmlns="http://www.w3.org/2000/svg" xmlns:xlink="http://www.w3.org/1999/xlink" x="0px" y="0px"
	 viewBox="0 0 100 100" style="enable-background:new 0 0 100 100;" xml:space="preserve">
<style type="text/css">
	.st0{fill:#7566AB;}
</style>
<g>
	<g>
		<path class="st0" d="M27.09,9.83c5.35,0,9.09,1.9,11.14,3.31c1.36,0.97,1.46,2.29,0.58,3.7l-1.22,1.99
			c-0.92,1.51-2.14,1.65-3.65,0.73c-1.6-0.92-3.89-1.95-6.47-1.95c-6.95,0-9.82,4.91-9.82,9.92c0,5.15,3.11,10.46,9.82,10.46
			c2.92,0,5.45-1.31,7.1-2.48c1.46-1.02,2.72-0.97,3.74,0.49l1.36,1.9c0.92,1.36,0.88,2.72-0.44,3.74
			c-2.19,1.7-6.27,4.13-12.16,4.13c-11.19,0-18.24-7.73-18.24-18.04C8.85,17.61,16.34,9.83,27.09,9.83z"/>
		<path class="st0" d="M65.75,9.83c10.8,0,18.19,7.78,18.19,17.75c0,10.21-7.39,18.19-18.19,18.19c-10.8,0-18.19-7.98-18.19-18.19
			C47.56,17.61,54.95,9.83,65.75,9.83z M65.75,37.99c5.5,0,9.39-4.47,9.39-10.41c0-5.69-3.89-9.97-9.39-9.97s-9.39,4.28-9.39,9.97
			C56.36,33.51,60.25,37.99,65.75,37.99z"/>
		<path class="st0" d="M27.04,53.49c10.8,0,18.19,7.78,18.19,17.75c0,10.21-7.39,18.19-18.19,18.19S8.85,81.45,8.85,71.24
			C8.85,61.27,16.24,53.49,27.04,53.49z M27.04,81.65c5.5,0,9.39-4.47,9.39-10.41c0-5.69-3.89-9.97-9.39-9.97s-9.39,4.28-9.39,9.97
			C17.65,77.17,21.54,81.65,27.04,81.65z"/>
	</g>
	<g>
		<g>
			<polygon class="st0" points="58.1,89.8 63.97,89.8 54.32,72.27 63.97,55.25 58.1,55.25 48.52,72.3 			"/>
		</g>
		<g>
			<polygon class="st0" points="81.57,90.17 75.7,90.17 85.35,72.64 75.7,55.62 81.57,55.62 91.15,72.67 			"/>
		</g>
		<g>
			<polygon class="st0" points="75.34,60.46 65.53,85.87 63.74,84.61 73.56,59.2 			"/>
		</g>
	</g>
</g>
</svg>
